<svg id="Layer_1" data-name="Layer 1" xmlns="http://www.w3.org/2000/svg" viewBox="0 0 1255 765"><defs><style>.cls-1{fill:#f06;}.cls-2{fill:#fff;}</style></defs><polygon class="cls-1" points="546.86 415.53 522.34 347.38 509.15 347.38 509.15 255.24 254.64 255.24 254.64 509.76 509.15 509.76 509.15 386.72 533.93 448.55 559.41 448.55 599.96 347.38 571.58 347.38 546.86 415.53"/><rect class="cls-1" x="608.66" y="347.38" width="27.42" height="101.17"/><path class="cls-1" d="M680.12,376.92c0-5.6,5-9.85,13.9-9.85,9.84,0,14.67,5.8,15.25,12.17h26.45c-.77-14.87-11.2-34.18-41.51-34.18-24.9,0-40.54,15.06-40.54,33.4,0,40.16,56.18,24.14,56.18,41.13,0,5.59-5.41,9.26-15.83,9.26-11.39,0-16.41-6.37-16.8-13.13h-27.8c1.35,18.93,12.16,35.14,43.83,35.14,27.41,0,42.86-14.28,42.86-32.43C736.11,376.92,680.12,393.91,680.12,376.92Z"/><rect class="cls-1" x="749.97" y="347.38" width="27.42" height="101.17"/><path class="cls-1" d="M842.49,345.06c-32.43,0-53.09,24.14-53.09,52.9s20.66,52.9,53.09,52.9,53.1-24.13,53.1-52.9S874.93,345.06,842.49,345.06Zm0,81.67c-14.47,0-25.67-10.62-25.67-28.77S828,369.2,842.49,369.2s25.68,10.62,25.68,28.76S857,426.73,842.49,426.73Z"/><path class="cls-1" d="M963.1,345.06c-15.06,0-25.48,6-30.12,14.68V347.38H907.69V448.55h27.42V390.63c0-13.52,7.33-22,20.65-22,12.17,0,17.19,8.11,17.19,19.88v60.05h27.41V385.41C1000.36,361.28,987.43,345.06,963.1,345.06Z"/><path class="cls-2" d="M343.79,335.39A14.62,14.62,0,1,0,329,320.77,14.67,14.67,0,0,0,343.79,335.39Z"/><path class="cls-2" d="M313,413.71a50.38,50.38,0,0,0-1.31,11c0,12.88,7,21.43,21.83,21.43,12.31,0,22.29-7.31,29.47-19.12l-4.38,17.61h24.44l14-56C400.52,374.4,407.29,367,417.55,367c8.07,0,13.09,5,13.09,13.31a26.23,26.23,0,0,1-1.09,7.86L422.35,414a38.74,38.74,0,0,0-1.53,10.91c0,12.23,7.2,21.17,22.26,21.17,12.88,0,23.14-8.29,28.81-28.15l-9.6-3.71c-4.8,13.31-9,15.71-12.22,15.71s-5-2.18-5-6.54a29,29,0,0,1,1.09-6.77l7-25.09a55.27,55.27,0,0,0,2.41-15.92c0-18.77-11.35-28.57-25.11-28.57-12.87,0-26,11.62-32.52,23.84l4.81-21.94H365.38l-5.24,19.33h17.47l-10.76,43.05c-8.44,18.77-24,19.07-25.9,18.64-3.2-.72-5.24-1.94-5.24-6.09a41.23,41.23,0,0,1,1.53-10l16.37-64.94H312.14l-5.24,19.33h17.24Z"/></svg>